<svg width="29" height="28" viewBox="0 0 29 28" fill="none" xmlns="http://www.w3.org/2000/svg">
<path d="M26.542 2.33199C23.3636 -0.777924 18.2824 -0.777247 15.1048 2.33353L1.77766 15.6607C-0.632157 18.1274 -0.586102 22.0805 1.88053 24.4903C4.30658 26.8605 8.18115 26.8605 10.6072 24.4903L22.6752 12.4223C24.244 10.8535 24.244 8.3098 22.6752 6.74095C21.1063 5.17209 18.5626 5.17209 16.9938 6.74095L5.45049 18.2842C5.04787 18.7011 5.05943 19.3654 5.47631 19.768C5.88299 20.1608 6.52769 20.1608 6.93437 19.768L18.4776 8.22476C19.243 7.49146 20.458 7.51759 21.1913 8.28305C21.9024 9.02539 21.9024 10.1962 21.1913 10.9385L9.12338 23.0064C7.4931 24.6135 4.86863 24.5947 3.26154 22.9644C1.67067 21.3506 1.67067 18.7584 3.26154 17.1446L16.5887 3.81734C18.9626 1.44257 22.8121 1.4419 25.1869 3.81574C27.5616 6.18959 27.5623 10.0391 25.1885 12.4139L11.8612 25.7411C11.421 26.1181 11.3698 26.7806 11.7467 27.2208C12.1237 27.6609 12.7862 27.7122 13.2264 27.3352C13.2674 27.3001 13.3057 27.2618 13.3409 27.2208L26.6681 13.8935C29.8259 10.6661 29.7695 5.4898 26.542 2.33199Z" fill="#5D778A"/>
</svg>
