<svg width="41" height="31" viewBox="0 0 41 31" fill="none" xmlns="http://www.w3.org/2000/svg">
<path d="M25.8093 27.1631C25.2134 27.1631 24.6963 26.7201 24.6191 26.1136C24.5355 25.4555 25.001 24.8542 25.6588 24.7704C29.4544 24.2868 32.8534 23.2583 35.2294 21.8738C37.4025 20.6079 38.599 19.1196 38.599 17.6832C38.599 16.1001 37.1988 14.8047 36.024 13.9965C35.4775 13.6205 35.3392 12.8729 35.7152 12.3261C36.0912 11.7796 36.8391 11.6413 37.3856 12.0173C39.751 13.6446 41.0013 15.6037 41.0013 17.6835C41.0013 20.0439 39.4238 22.2107 36.439 23.9496C33.7524 25.5149 30.1298 26.6228 25.9626 27.1537C25.911 27.1599 25.8597 27.1631 25.8093 27.1631Z" fill="#424F59"/>
<path d="M20.2072 25.442L17.0041 22.2389C16.5349 21.7697 15.7745 21.7697 15.3052 22.2389C14.8363 22.7078 14.8363 23.4685 15.3052 23.9374L16.2412 24.8734C12.6527 24.5027 9.3926 23.6672 6.86826 22.4532C4.03018 21.0884 2.40234 19.3495 2.40234 17.6829C2.40234 16.2693 3.56786 14.8001 5.68398 13.5457C6.25485 13.2076 6.44316 12.4706 6.10502 11.9001C5.76656 11.3292 5.02959 11.1409 4.45904 11.479C0.773567 13.6637 0 16.0585 0 17.6829C0 20.348 2.06952 22.811 5.82725 24.6184C8.74384 26.0207 12.5166 26.9601 16.6268 27.3236L15.3052 28.6452C14.8363 29.1141 14.8363 29.8748 15.3052 30.344C15.5398 30.5783 15.8473 30.6956 16.1548 30.6956C16.462 30.6956 16.7695 30.5783 17.0041 30.344L20.2072 27.1409C20.6761 26.6717 20.6761 25.9109 20.2072 25.442Z" fill="#424F59"/>
<path d="M12.5815 15.2777V14.9887C12.5815 13.9692 11.9575 13.7715 11.1207 13.7715C10.6034 13.7715 10.436 13.3152 10.436 12.8588C10.436 12.4021 10.6034 11.9457 11.1207 11.9457C11.6988 11.9457 12.3075 11.8697 12.3075 10.6372C12.3075 9.75481 11.8055 9.54179 11.1814 9.54179C10.436 9.54179 10.0556 9.72447 10.0556 10.3179C10.0556 10.8349 9.82729 11.185 8.94486 11.185C7.84942 11.185 7.71272 10.9566 7.71272 10.2262C7.71272 9.03974 8.56449 7.50293 11.1814 7.50293C13.1139 7.50293 14.5744 8.20267 14.5744 10.2569C14.5744 11.3673 14.1637 12.4021 13.403 12.7521C14.3007 13.0868 14.9548 13.7562 14.9548 14.9887V15.2777C14.9548 17.7729 13.2356 18.7164 11.1054 18.7164C8.48848 18.7164 7.48438 17.1189 7.48438 15.8408C7.48438 15.156 7.77341 14.9733 8.61016 14.9733C9.58392 14.9733 9.82729 15.1864 9.82729 15.7647C9.82729 16.4798 10.497 16.6472 11.1814 16.6472C12.2162 16.6472 12.5815 16.2668 12.5815 15.2777Z" fill="#424F59"/>
<path d="M24.1895 14.9887V15.1257C24.1895 17.7426 22.5613 18.7164 20.4618 18.7164C18.3622 18.7164 16.7188 17.7426 16.7188 15.1257V11.0936C16.7188 8.47669 18.4076 7.50293 20.5988 7.50293C23.17 7.50293 24.1895 9.10043 24.1895 10.3632C24.1895 11.0936 23.8394 11.3217 23.0787 11.3217C22.4246 11.3217 21.8463 11.1543 21.8463 10.4546C21.8463 9.8765 21.2378 9.57214 20.5228 9.57214C19.625 9.57214 19.0923 10.0438 19.0923 11.0936V12.4628C19.5794 11.9304 20.2641 11.7934 20.9945 11.7934C22.7287 11.7934 24.1895 12.5541 24.1895 14.9887ZM19.0923 15.293C19.0923 16.3428 19.6097 16.7992 20.4618 16.7992C21.3139 16.7992 21.8159 16.3428 21.8159 15.293V15.156C21.8159 14.0452 21.3139 13.6192 20.4464 13.6192C19.625 13.6192 19.0923 14.0149 19.0923 15.019V15.293Z" fill="#424F59"/>
<path d="M26.0312 15.1257V11.0936C26.0312 8.47669 27.6591 7.50293 29.7589 7.50293C31.8585 7.50293 33.5017 8.47669 33.5017 11.0936V15.1257C33.5017 17.7426 31.8585 18.7164 29.7589 18.7164C27.6591 18.7164 26.0312 17.7426 26.0312 15.1257ZM31.1281 11.0936C31.1281 10.0438 30.611 9.57214 29.7589 9.57214C28.9069 9.57214 28.4048 10.0438 28.4048 11.0936V15.1257C28.4048 16.1755 28.9069 16.6472 29.7589 16.6472C30.611 16.6472 31.1281 16.1755 31.1281 15.1257V11.0936Z" fill="#424F59"/>
<path d="M36.3848 7.49219C34.3975 7.49219 32.7812 5.87561 32.7812 3.88867C32.7812 1.90173 34.3975 0.285156 36.3848 0.285156C38.3717 0.285156 39.9883 1.90173 39.9883 3.88867C39.9883 5.87561 38.3717 7.49219 36.3848 7.49219ZM36.3848 2.6875C35.7222 2.6875 35.1836 3.22646 35.1836 3.88867C35.1836 4.55119 35.7222 5.08984 36.3848 5.08984C37.047 5.08984 37.5859 4.55119 37.5859 3.88867C37.5859 3.22646 37.047 2.6875 36.3848 2.6875Z" fill="#424F59"/>
</svg>
