<svg width="21" height="21" viewBox="0 0 21 21" fill="none" xmlns="http://www.w3.org/2000/svg">
<g clip-path="url(#clip0)">
<path d="M19.8703 1.58121e-06H1.14823C0.817813 -0.000623025 0.515089 0.183843 0.364143 0.477615C0.211115 0.775343 0.237973 1.13386 0.433474 1.40578L7.29245 11.0682C7.29474 11.0715 7.29724 11.0746 7.29953 11.078C7.54875 11.4144 7.68366 11.8221 7.68429 12.2408V20.1185C7.68283 20.3517 7.77444 20.5759 7.93871 20.7414C8.10319 20.9067 8.3268 21 8.55998 21C8.67845 20.9998 8.79587 20.9763 8.90539 20.9307L12.7596 19.4612C13.1048 19.3556 13.334 19.0298 13.334 18.6375V12.2408C13.3347 11.8221 13.4696 11.4144 13.7186 11.078C13.7209 11.0746 13.7234 11.0715 13.7257 11.0682L20.5848 1.40557C20.7803 1.13386 20.8072 0.775551 20.6542 0.477823C20.5034 0.183843 20.2005 -0.000623025 19.8703 1.58121e-06V1.58121e-06Z" fill="white"/>
</g>
<defs>
<clipPath id="clip0">
<rect width="21" height="21" fill="white"/>
</clipPath>
</defs>
</svg>
